<svg width="40" height="40" viewBox="0 0 40 40" fill="none" xmlns="http://www.w3.org/2000/svg">
<path d="M34.9375 6H4.3125C4.14062 6 4 6.14062 4 6.3125V8.8125C4 8.98438 4.14062 9.125 4.3125 9.125H34.9375C35.1094 9.125 35.25 8.98438 35.25 8.8125V6.3125C35.25 6.14062 35.1094 6 34.9375 6ZM34.9375 30.375H4.3125C4.14062 30.375 4 30.5156 4 30.6875V33.1875C4 33.3594 4.14062 33.5 4.3125 33.5H34.9375C35.1094 33.5 35.25 33.3594 35.25 33.1875V30.6875C35.25 30.5156 35.1094 30.375 34.9375 30.375ZM34.9375 18.1875H4.3125C4.14062 18.1875 4 18.3281 4 18.5V21C4 21.1719 4.14062 21.3125 4.3125 21.3125H34.9375C35.1094 21.3125 35.25 21.1719 35.25 21V18.5C35.25 18.3281 35.1094 18.1875 34.9375 18.1875Z" fill="white"/>
</svg>
