<svg width="45" height="45" viewBox="0 0 45 45" fill="none" xmlns="http://www.w3.org/2000/svg">
<rect width="45" height="45" rx="22.5" fill="white" fill-opacity="0.5"/>
<g clip-path="url(#clip0_1_276)">
<path d="M16.9444 30.8331C15.8333 30.8331 14.7222 29.8609 14.1667 29.4442C11.3889 27.4998 10.5556 26.8053 10 26.3887V32.222C10 32.9889 10.622 33.6109 11.3889 33.6109H22.5C23.2669 33.6109 23.8889 32.9889 23.8889 32.222V26.3887C23.3333 26.8053 22.5 27.4998 19.7222 29.4442C19.1667 29.8609 18.0556 30.8331 16.9444 30.8331ZM22.5 22.4998H11.3889C10.622 22.4998 10 23.1217 10 23.8887V24.5831C11.1111 25.4164 10.9722 25.4164 15 28.3331C15.4167 28.6109 16.25 29.4442 16.9444 29.4442C17.6389 29.4442 18.4722 28.6109 18.8889 28.472C22.9167 25.5553 22.7778 25.5553 23.8889 24.722V23.8887C23.8889 23.1217 23.2669 22.4998 22.5 22.4998ZM33.6111 18.3331H19.7222C18.9553 18.3331 18.3333 18.9551 18.3333 19.722V21.1109H22.5C23.9414 21.1109 25.1298 22.2142 25.2652 23.6204L25.2778 23.6109V29.4442H33.6111C34.378 29.4442 35 28.8223 35 28.0553V19.722C35 18.9551 34.378 18.3331 33.6111 18.3331ZM32.2222 23.8887H29.4444V21.1109H32.2222V23.8887ZM16.9444 19.722C16.9444 18.1903 18.1905 16.9442 19.7222 16.9442H29.4444V12.7776C29.4444 12.0106 28.8225 11.3887 28.0556 11.3887H14.1667C13.3997 11.3887 12.7778 12.0106 12.7778 12.7776V21.1109H16.9444V19.722Z" fill="white"/>
</g>
<defs>
<clipPath id="clip0_1_276">
<rect width="25" height="25" fill="white" transform="translate(10 10)"/>
</clipPath>
</defs>
</svg>
